<svg xmlns="http://www.w3.org/2000/svg" viewBox="0 0 32 32" shape-rendering="crispEdges">
  <!-- Background: paper cream -->
  <rect width="32" height="32" fill="#F4ECD8"/>
  <!-- Cartridge body (dark ink) -->
  <rect x="4" y="6" width="24" height="20" fill="#1A1814"/>
  <!-- Notched top corners -->
  <rect x="4" y="6" width="6" height="2" fill="#F4ECD8"/>
  <rect x="22" y="6" width="6" height="2" fill="#F4ECD8"/>
  <!-- Top stripe: Game Boy LCD green -->
  <rect x="6" y="9" width="20" height="3" fill="#9BBC0F"/>
  <!-- Label paper -->
  <rect x="6" y="13" width="20" height="10" fill="#F4ECD8"/>
  <!-- Label inner border -->
  <rect x="7" y="14" width="18" height="8" fill="none" stroke="#1A1814" stroke-width="0.5"/>
  <!-- "RP" monogram letters via pixel rects -->
  <!-- R -->
  <rect x="10" y="16" width="1" height="5" fill="#0F380F"/>
  <rect x="11" y="16" width="2" height="1" fill="#0F380F"/>
  <rect x="13" y="17" width="1" height="1" fill="#0F380F"/>
  <rect x="11" y="18" width="2" height="1" fill="#0F380F"/>
  <rect x="12" y="19" width="1" height="1" fill="#0F380F"/>
  <rect x="13" y="20" width="1" height="1" fill="#0F380F"/>
  <!-- P -->
  <rect x="16" y="16" width="1" height="5" fill="#0F380F"/>
  <rect x="17" y="16" width="2" height="1" fill="#0F380F"/>
  <rect x="19" y="17" width="1" height="1" fill="#0F380F"/>
  <rect x="17" y="18" width="2" height="1" fill="#0F380F"/>
  <!-- Bottom contact pins -->
  <rect x="8" y="25" width="16" height="1" fill="#1A1814"/>
</svg>
