<svg xmlns="http://www.w3.org/2000/svg" viewBox="0 0 32 32" shape-rendering="crispEdges">
  <!-- Background: icy cyan (matches app icon background) -->
  <rect width="32" height="32" fill="#DFF9FB"/>
  <!-- Cartridge body (deep navy) -->
  <rect x="4" y="6" width="24" height="20" fill="#1E1A3B"/>
  <!-- Notched top corners -->
  <rect x="4" y="6" width="6" height="2" fill="#DFF9FB"/>
  <rect x="22" y="6" width="6" height="2" fill="#DFF9FB"/>
  <!-- Top stripe: electric purple (matches console body) -->
  <rect x="6" y="9" width="20" height="3" fill="#7625C4"/>
  <!-- Label paper -->
  <rect x="6" y="13" width="20" height="10" fill="#DFF9FB"/>
  <!-- Label inner border -->
  <rect x="7" y="14" width="18" height="8" fill="none" stroke="#1E1A3B" stroke-width="0.5"/>
  <!-- "RP" monogram letters via pixel rects -->
  <!-- R -->
  <rect x="10" y="16" width="1" height="5" fill="#51188A"/>
  <rect x="11" y="16" width="2" height="1" fill="#51188A"/>
  <rect x="13" y="17" width="1" height="1" fill="#51188A"/>
  <rect x="11" y="18" width="2" height="1" fill="#51188A"/>
  <rect x="12" y="19" width="1" height="1" fill="#51188A"/>
  <rect x="13" y="20" width="1" height="1" fill="#51188A"/>
  <!-- P -->
  <rect x="16" y="16" width="1" height="5" fill="#51188A"/>
  <rect x="17" y="16" width="2" height="1" fill="#51188A"/>
  <rect x="19" y="17" width="1" height="1" fill="#51188A"/>
  <rect x="17" y="18" width="2" height="1" fill="#51188A"/>
  <!-- Bottom contact pins -->
  <rect x="8" y="25" width="16" height="1" fill="#1E1A3B"/>
</svg>
